<svg width="75" height="75" viewBox="0 0 75 75" fill="none" xmlns="http://www.w3.org/2000/svg">
<path d="M49 41.3333L37.5 52.8333M37.5 52.8333L26 41.3333M37.5 52.8333V22.1667M37.5 72C32.9694 72 28.4832 71.1076 24.2974 69.3738C20.1117 67.6401 16.3084 65.0988 13.1048 61.8952C9.9012 58.6916 7.35994 54.8883 5.62616 50.7026C3.89237 46.5168 3 42.0306 3 37.5C3 32.9694 3.89237 28.4832 5.62616 24.2974C7.35994 20.1117 9.9012 16.3084 13.1048 13.1048C16.3084 9.90119 20.1117 7.35994 24.2974 5.62616C28.4832 3.89237 32.9694 3 37.5 3C46.65 3 55.4252 6.63481 61.8952 13.1048C68.3652 19.5748 72 28.35 72 37.5C72 46.65 68.3652 55.4252 61.8952 61.8952C55.4252 68.3652 46.65 72 37.5 72Z" stroke="#2B2B2B" stroke-width="5" stroke-linecap="round" stroke-linejoin="round"/>
</svg>
