<svg width="148" height="148" viewBox="0 0 148 148" fill="none" xmlns="http://www.w3.org/2000/svg">
<path d="M147.996 74.0028C147.996 96.1602 138.259 116.04 122.827 129.605C121.324 130.923 119.769 132.185 118.162 133.376L118.129 133.405C117.869 133.599 117.609 133.792 117.349 133.977L117.288 134.024C113.87 136.491 110.241 138.675 106.421 140.537C106.157 140.669 105.888 140.797 105.613 140.92C104.999 141.218 104.375 141.501 103.746 141.78L103.742 141.785C101.464 142.787 99.1283 143.675 96.7371 144.445C96.4728 144.531 96.2075 144.616 95.9384 144.696C92.0248 145.911 87.9691 146.809 83.8006 147.362C83.5363 147.396 83.2662 147.429 82.9972 147.461C80.048 147.816 77.0467 148 73.998 148C72.0881 148 70.1933 147.929 68.3213 147.783C68.0378 147.764 67.7544 147.74 67.4757 147.712C62.0162 147.239 56.7274 146.171 51.6793 144.573C51.3769 144.479 51.0792 144.38 50.7769 144.281H50.7719C47.1656 143.09 43.6822 141.629 40.3454 139.923C40.0053 139.752 39.6697 139.578 39.3341 139.393C38.8139 139.124 38.3034 138.841 37.793 138.556C37.4384 138.358 37.0839 138.155 36.7345 137.947C35.1887 137.049 33.6859 136.094 32.2158 135.087C31.5211 134.614 30.8403 134.127 30.1645 133.627C29.919 133.452 29.6729 133.268 29.432 133.083C26.4826 130.857 23.7081 128.414 21.1275 125.776L21.1228 125.772C8.05398 112.424 0 94.1518 0 74.0028C0 33.1328 33.1279 0 73.998 0C114.868 0 147.996 33.1328 147.996 74.0028Z" fill="#FBC775"/>
<path d="M123.054 127.052L122.827 129.605C121.324 130.923 119.769 132.185 118.162 133.376L118.129 133.405C117.869 133.599 117.609 133.792 117.349 133.977L117.288 134.024C113.87 136.491 110.241 138.675 106.421 140.537C106.157 140.669 105.888 140.797 105.613 140.92C104.999 141.218 104.375 141.501 103.746 141.78L103.742 141.785C101.464 142.787 99.1282 143.675 96.737 144.445C96.4727 144.531 96.2074 144.616 95.9384 144.696C92.0248 145.911 87.969 146.809 83.8005 147.362C83.5362 147.396 83.2662 147.429 82.9972 147.461C80.048 147.816 77.0466 148 73.998 148C72.0881 148 70.1933 147.929 68.3213 147.783C68.0377 147.764 67.7543 147.74 67.4756 147.712C62.0162 147.239 56.7274 146.171 51.6793 144.573C51.3769 144.479 51.0792 144.38 50.7769 144.281H50.7719C47.1656 143.09 43.6821 141.629 40.3454 139.923C40.0053 139.752 39.6697 139.578 39.334 139.393C38.8138 139.124 38.3034 138.841 37.7929 138.556C37.4384 138.358 37.0839 138.155 36.7345 137.947C35.1887 137.049 33.6858 136.094 32.2158 135.087C31.5211 134.614 30.8403 134.127 30.1645 133.627C29.919 133.452 29.6729 133.268 29.432 133.083C26.4826 130.857 23.7081 128.414 21.1274 125.776L21.1228 125.772C26.4923 124.902 41.8155 118.681 51.3299 114.674C52.866 114.031 54.2507 113.44 55.4179 112.944C57.8052 111.923 59.2846 111.276 59.2846 111.276C59.2846 111.276 69.7253 111.828 78.4175 113.044C82.1985 113.572 85.6489 114.23 87.771 115.019C87.9311 115.08 88.1016 115.142 88.2816 115.208C88.3338 115.227 88.3849 115.246 88.437 115.264C90.507 116.021 93.8399 117.179 97.6446 118.483C108.459 122.193 123.054 127.052 123.054 127.052Z" fill="#343062"/>
<path d="M118.162 133.376L118.129 133.405C117.869 133.599 117.609 133.792 117.349 133.977L117.292 133.963C113.563 132.8 109.716 132.048 105.836 131.613C105.561 131.585 105.287 131.552 105.013 131.529C104.177 131.444 103.34 131.372 102.503 131.32C100.097 131.164 97.6872 131.103 95.2761 131.132C94.9976 131.126 94.7143 131.132 94.4301 131.136C92.1716 131.174 89.9073 131.278 87.6478 131.439C86.5517 131.51 85.4641 131.599 84.3727 131.698H84.368C82.8598 131.831 81.3572 131.982 79.8537 132.152C79.5799 132.185 79.3109 132.214 79.0361 132.247C78.5113 132.308 77.9921 132.37 77.4673 132.432H77.4625C77.0419 132.483 76.6212 132.535 76.1959 132.592C73.2846 132.956 70.377 133.362 67.4801 133.773C66.4545 133.92 65.429 134.072 64.4079 134.236C64.1292 134.279 63.855 134.322 63.5808 134.369C58.9111 135.13 54.2649 136.066 49.6802 137.228C49.4156 137.29 49.1508 137.356 48.8862 137.427C46.0171 138.164 43.1669 138.996 40.3453 139.923C40.0052 139.752 39.6696 139.578 39.334 139.393C42.4011 138.363 45.502 137.451 48.6356 136.643C48.9001 136.572 49.165 136.505 49.4295 136.439C50.6255 136.137 51.8306 135.849 53.0358 135.574C56.4343 134.804 59.8565 134.161 63.2923 133.599C63.5711 133.556 63.8453 133.514 64.1195 133.471C65.9441 133.178 67.7733 132.913 69.6068 132.668C71.4978 132.416 73.384 132.166 75.2741 131.926C75.7326 131.869 76.1911 131.807 76.6497 131.755C77.363 131.665 78.0774 131.58 78.786 131.496C79.0598 131.467 79.3345 131.434 79.6036 131.406C81.1109 131.23 82.6191 131.075 84.1264 130.938C85.1429 130.838 86.1595 130.753 87.1751 130.678C87.3456 130.664 87.5199 130.653 87.6905 130.64C87.8089 130.631 87.9226 130.626 88.04 130.616L88.1348 130.612H88.1395C90.1906 130.47 92.2521 130.375 94.3174 130.332C94.6007 130.328 94.8839 130.323 95.1729 130.318C98.429 130.28 101.686 130.394 104.923 130.71C105.197 130.734 105.472 130.762 105.75 130.796C109.674 131.221 113.554 131.963 117.335 133.117C117.6 133.197 117.865 133.281 118.129 133.367L118.162 133.376Z" fill="#F19A9A"/>
<path d="M37.793 138.557C37.4385 138.359 37.084 138.155 36.7346 137.947C36.0206 135.773 35.1934 133.637 34.2671 131.543C34.1586 131.292 34.0451 131.042 33.9315 130.796C32.9202 128.583 31.7857 126.423 30.5426 124.33C30.2736 123.881 30.9775 123.469 31.247 123.919C32.2915 125.682 33.265 127.483 34.1489 129.331C34.3238 129.695 34.4988 130.063 34.664 130.432C34.7775 130.678 34.8911 130.928 35.0001 131.178C36.0727 133.585 37.0038 136.047 37.793 138.557Z" fill="#F19A9A"/>
<path d="M51.6792 144.573C51.3768 144.479 51.0791 144.38 50.7768 144.281H50.7718C50.7293 144.086 50.6822 143.893 50.6346 143.699C50.1149 141.591 49.5384 139.497 48.8862 137.427C48.8059 137.167 48.7252 136.907 48.6356 136.643C47.5297 133.216 46.2156 129.864 44.6416 126.627C44.5234 126.387 44.4053 126.14 44.2779 125.9C43.5122 124.358 42.6804 122.851 41.7776 121.371C41.5034 120.917 42.2078 120.511 42.4815 120.955C43.394 122.459 44.2493 123.994 45.034 125.563C45.1568 125.805 45.2799 126.05 45.3982 126.292C45.5348 126.58 45.6719 126.863 45.809 127.152C47.2319 130.172 48.4182 133.278 49.4295 136.439C49.5195 136.699 49.5998 136.964 49.6801 137.228C50.4361 139.649 51.0934 142.102 51.6792 144.573Z" fill="#F19A9A"/>
<path d="M68.3212 147.783C68.0377 147.764 67.7543 147.74 67.4756 147.712C67.1068 146.006 66.6909 144.309 66.2274 142.622C65.4668 139.833 64.5875 137.078 63.5808 134.369C63.4908 134.109 63.3962 133.854 63.2924 133.599C61.6856 129.331 59.7761 125.18 57.5827 121.183C57.4554 120.946 57.3228 120.71 57.1904 120.473C56.685 119.561 56.1602 118.654 55.6119 117.761C55.13 116.947 54.6287 116.143 54.1136 115.345C53.8302 114.9 54.534 114.494 54.818 114.934C55.6686 116.257 56.4911 117.6 57.2758 118.961C57.5121 119.363 57.7387 119.764 57.9659 120.171C58.0979 120.408 58.2257 120.643 58.3581 120.879C58.6273 121.371 58.8922 121.867 59.152 122.364C61.0381 125.961 62.6969 129.671 64.1195 133.471C64.2187 133.726 64.3133 133.982 64.4079 134.236C66.0244 138.656 67.3334 143.184 68.3212 147.783Z" fill="#F19A9A"/>
<path d="M83.8005 147.362C83.5362 147.396 83.2662 147.429 82.9972 147.461C82.6571 145.599 82.2648 143.751 81.8253 141.912C81.2957 139.706 80.695 137.522 80.0338 135.352C79.9295 134.997 79.8159 134.648 79.7022 134.293C79.49 133.608 79.2673 132.927 79.0362 132.247C78.9566 131.997 78.8704 131.746 78.7861 131.496C76.7861 125.658 74.3523 119.963 71.639 114.413C71.4126 113.946 72.1165 113.529 72.3439 114.002C73.5679 116.502 74.7351 119.027 75.8321 121.584C77.2115 124.807 78.4782 128.083 79.6036 131.406C79.6936 131.651 79.7732 131.902 79.8538 132.152C80.1996 133.173 80.5302 134.203 80.8419 135.239C80.9319 135.536 81.0209 135.83 81.1071 136.127C82.1985 139.818 83.1061 143.567 83.8005 147.362Z" fill="#F19A9A"/>
<path d="M96.737 144.445C96.4727 144.531 96.2074 144.616 95.9384 144.697C95.8436 143.406 95.7356 142.121 95.6077 140.83C95.2904 137.592 94.8839 134.36 94.4301 131.136C94.3923 130.867 94.3544 130.602 94.3174 130.332C94.2274 129.709 94.1374 129.08 94.0427 128.456C93.8589 127.195 93.6505 125.927 93.3767 124.671C92.866 122.283 92.129 119.948 90.8851 117.831C90.616 117.378 91.3256 116.97 91.5899 117.419C92.6633 119.249 93.3861 121.253 93.9006 123.309C93.9527 123.512 94 123.711 94.0474 123.914C94.5391 126.017 94.8792 128.163 95.1729 130.318C95.206 130.588 95.2439 130.862 95.2761 131.132C95.4467 132.407 95.5983 133.684 95.7631 134.951C96.1695 138.107 96.4916 141.27 96.737 144.445Z" fill="#F19A9A"/>
<path d="M106.421 140.537C106.157 140.669 105.888 140.797 105.613 140.92C105.537 137.781 105.339 134.648 105.013 131.529C104.985 131.254 104.956 130.98 104.923 130.71C104.64 128.148 104.271 125.592 103.818 123.053C103.728 122.538 104.512 122.321 104.607 122.837C105.075 125.479 105.458 128.13 105.75 130.795C105.779 131.07 105.807 131.339 105.836 131.613C106.143 134.581 106.337 137.554 106.421 140.537Z" fill="#F19A9A"/>
<path d="M118.129 133.367V133.405C117.869 133.599 117.609 133.792 117.349 133.977L117.288 134.024L117.292 133.963C117.311 133.679 117.325 133.4 117.335 133.117C117.415 130.985 117.325 128.853 116.952 126.736C116.862 126.225 117.647 126.003 117.741 126.523C118.143 128.797 118.228 131.084 118.129 133.367Z" fill="#F19A9A"/>
<path d="M88.4389 84.6183V116.206L87.178 140.504L55.1553 113.901L62.0475 88.9383L64.7182 79.258L65.5037 77.4949L86.259 82.4706L88.4389 84.6183Z" fill="#F89E91"/>
<path d="M88.4391 84.6182V105.359C77.313 108.689 65.6372 93.9537 62.0476 88.9383L64.7183 79.2579L65.5039 77.4948L86.2591 82.4705L88.4391 84.6182Z" fill="#F46A78"/>
<path d="M54.1833 69.5567C54.1833 69.5567 45.9686 50.1998 48.9485 36.3633C51.5195 24.4244 73.2637 14.4911 89.139 24.4026C105.225 34.4458 95.2932 65.3892 95.2932 65.3892L64.2468 72.0919L54.1833 69.5567Z" fill="#AD787A"/>
<path d="M49.5745 34.3416C49.5745 34.3416 56.7897 30.2366 62.2474 37.3335L89.7652 42.2902C89.7652 42.2902 97.638 36.9772 96.7768 34.7026C95.9147 32.427 96.2927 33.705 96.2927 33.705C96.2927 33.705 99.4768 23.9744 100.771 21.9688L97.7308 24.108C97.7308 24.108 98.6564 18.8936 97.4864 16.2201L96.0483 17.9576C96.0483 17.9576 91.3313 8.3322 80.0527 9.80253C68.7741 11.2729 63.8504 15.952 63.8504 15.952L65.159 12.6096C65.159 12.6096 55.0039 17.4233 52.8645 23.8408L51.7964 19.2953L47.1157 28.3864L49.5745 34.3416Z" fill="#967779"/>
<path d="M63.077 86.388C63.8556 91.6393 82.7974 98.1147 89.7711 97.4828C96.742 96.8518 110.015 85.0484 110.745 80.9007C110.829 80.428 110.725 79.4977 110.48 78.213C109.985 75.6371 108.904 71.6391 107.541 67.0699C103.612 53.8577 97.3653 35.8632 96.2929 33.705C96.2929 33.705 95.7141 37.1241 89.2595 38.4628C82.3616 39.8924 66.2978 35.6339 62.2476 37.3335C62.2476 37.3335 62.3016 81.1338 63.077 86.388Z" fill="#F89E91"/>
<path d="M66.6855 76.7977C66.8642 79.9762 69.5862 82.4081 72.7647 82.23C75.9431 82.0509 78.375 79.3301 78.196 76.1516C78.0179 72.9731 75.296 70.5402 72.1176 70.7193C68.9391 70.8983 66.5069 73.6192 66.6855 76.7977Z" fill="#F6868D"/>
<path d="M103.41 72.9266C103.589 76.107 106.31 78.538 109.489 78.3599C109.83 78.3409 110.163 78.2907 110.48 78.213C109.985 75.6371 108.904 71.6391 107.541 67.0699C105.026 67.8051 103.256 70.1982 103.41 72.9266Z" fill="#F6868D"/>
<path d="M105.664 65.3002C105.664 65.3002 104.859 65.4574 103.81 65.5986C103.755 65.6071 103.696 65.6147 103.638 65.6223C102.216 65.8108 100.421 65.952 99.5726 65.6498L99.5451 65.6422V65.6384C99.4939 65.4773 98.43 62.009 97.7309 59.2833C97.44 58.1569 97.2165 57.1593 97.1501 56.5776C96.973 54.9595 97.1066 51.5309 98.6536 50.0975C99.0354 49.7479 99.4987 49.5168 100.067 49.4618C102.942 49.1909 105.664 65.3002 105.664 65.3002Z" fill="white"/>
<path d="M103.795 65.5872C103.744 65.5986 103.689 65.6109 103.638 65.6223C102.605 65.8506 101.572 65.8932 100.519 65.8383C100.103 65.8193 99.8123 65.772 99.5726 65.6498L99.5451 65.6384C99.4939 65.4773 98.43 62.009 97.7309 59.2833C97.44 58.1569 97.2165 57.1593 97.1501 56.5776C96.973 54.9595 97.1066 51.5309 98.6536 50.0975C98.7673 50.161 98.8744 50.2434 98.9606 50.3258C100.892 52.1325 102.09 54.6184 102.746 57.183C103.116 58.6202 103.328 60.0971 103.461 61.5732C103.528 62.3349 103.579 63.0975 103.618 63.8592C103.645 64.3812 103.877 65.0842 103.795 65.5872Z" fill="#487996"/>
<path d="M102.8 63.197C102.373 63.539 101.766 63.754 101.351 63.3419C101.079 63.0719 100.985 62.6731 100.936 62.2932C100.706 60.479 101.286 58.5757 102.492 57.2001C102.579 57.1025 102.68 57.0002 102.81 56.9898C103.003 56.9746 103.145 57.1631 103.237 57.3337C103.805 58.3853 103.996 59.6225 103.827 60.802C103.727 61.5021 103.57 62.2951 103.127 62.8682C103.041 62.98 102.929 63.0947 102.8 63.197Z" fill="white"/>
<path d="M64.247 72.092C62.2997 68.8576 57.803 62.5793 53.5025 64.1046C49.2026 65.6299 54.176 80.0017 55.9374 82.7908C57.6987 85.5799 61.9125 88.4751 64.0504 88.2657C66.188 88.0573 64.6481 72.758 64.247 72.092Z" fill="#F89E91"/>
<path d="M54.8785 71.1607C55.0964 70.1205 56.3482 69.8713 57.2187 70.2076C58.3145 70.6302 59.1338 71.6893 59.8488 72.5751C61.4145 74.5106 62.633 76.7265 63.4573 79.0741C63.6304 79.5668 64.4183 79.3546 64.2438 78.8572C63.2639 76.0672 61.7643 73.4827 59.8063 71.264C58.963 70.309 57.9 69.2934 56.5481 69.2385C55.4708 69.1949 54.3238 69.8382 54.092 70.9438C53.985 71.4553 54.771 71.6751 54.8785 71.1607Z" fill="#F46A78"/>
<path d="M58.8896 71.3322C58.5808 73.351 58.2715 75.369 57.9623 77.3879C57.929 77.6077 58.0182 77.8237 58.2475 77.89C58.4401 77.9449 58.7156 77.8218 58.7488 77.6048C59.0581 75.5859 59.3673 73.568 59.6761 71.5491C59.7098 71.3293 59.6207 71.1133 59.3913 71.047C59.1989 70.9921 58.9228 71.1152 58.8896 71.3322Z" fill="#F46A78"/>
<path d="M102.83 66.3309C102.872 66.4124 102.912 66.4977 102.946 66.5858C103.332 67.5606 103.063 68.6568 102.791 69.6695C102.634 70.2541 102.222 70.6993 101.628 70.886C101.281 70.9949 100.911 71.0091 100.547 71.0186C98.3864 71.0783 95.2638 71.4705 93.3482 70.2105C91.6808 69.1143 92.0077 66.5602 91.8987 64.8265C91.7339 62.2221 91.6657 59.6121 91.6913 57.003C91.7007 56.0376 91.7244 55.0694 91.8599 54.1135C91.9385 53.5631 92.0598 53.0022 92.3639 52.5352C92.4113 52.4622 92.4672 52.3893 92.5477 52.358C92.7495 52.2803 92.9333 52.4982 93.0394 52.6867C94.1222 54.6166 94.9919 56.6648 95.946 58.6505C96.8119 60.4534 97.4883 62.3434 99.1699 63.575C100.417 64.4883 102.132 64.9989 102.83 66.3309Z" fill="#F46A78"/>
<path d="M87.771 68.2579C87.771 68.2579 86.2163 69.3218 84.1226 70.0684C83.3647 70.3317 82.532 70.5591 81.6803 70.6728C80.2507 70.8651 78.4517 70.7401 76.8932 70.5392C76.6848 70.5117 76.4764 70.4843 76.2689 70.453C75.4314 70.3317 74.7019 70.1944 74.1866 70.0921C73.692 69.9935 73.3936 69.9225 73.3936 69.9225C73.3936 69.9225 73.3822 69.8637 73.3585 69.7576C73.1662 68.8311 72.2425 64.1577 72.3411 59.9826C72.396 57.6889 72.757 55.5488 73.7233 54.2604C75.1339 52.3798 77.3877 51.5395 79.5828 51.7906C81.9475 52.0615 84.2486 53.5934 85.3798 56.4365C87.5597 61.9228 87.771 68.2579 87.771 68.2579Z" fill="white"/>
<path d="M84.1227 70.0684C83.3648 70.3317 82.5321 70.5591 81.6804 70.6728C80.1011 70.8888 78.4716 70.7552 76.8932 70.5392C76.6848 70.5117 76.4764 70.4843 76.2689 70.453C75.6086 70.3545 74.863 70.2882 74.1866 70.0921C73.9279 70.021 73.6807 69.9263 73.4486 69.8088L73.3586 69.7576C73.1662 68.8311 72.2425 64.1577 72.3411 59.9825C72.396 57.6889 72.757 55.5488 73.7233 54.2604C75.134 52.3798 77.3878 51.5395 79.5829 51.7905C80.156 52.215 80.643 52.8156 81.0437 53.4087C84.2175 58.1295 85.1989 64.511 84.1227 70.0684Z" fill="#487996"/>
<path d="M59.7712 120.336C59.6438 120.383 59.516 120.435 59.3886 120.482C59.0433 120.615 58.6985 120.748 58.3583 120.879C58.098 120.979 57.8381 121.083 57.5829 121.182C55.9572 121.82 54.3408 122.468 52.729 123.134C50.2711 124.151 47.8276 125.199 45.3984 126.292C45.1431 126.396 44.8925 126.509 44.6418 126.627C41.3993 128.078 38.1854 129.595 35.0001 131.178C34.7541 131.292 34.5131 131.415 34.2671 131.543C32.8967 132.219 31.5258 132.913 30.1646 133.627C29.9191 133.452 29.673 133.268 29.4321 133.083C30.9258 132.309 32.4241 131.548 33.9315 130.796C34.1776 130.672 34.4185 130.55 34.664 130.432C34.8441 130.342 35.0282 130.253 35.2078 130.163C38.2043 128.688 41.2294 127.265 44.2781 125.899C44.5283 125.786 44.779 125.672 45.0342 125.563C49.047 123.773 53.1024 122.076 57.1905 120.473C57.4459 120.364 57.7057 120.265 57.9661 120.171C58.1784 120.081 58.3912 120 58.6085 119.921C58.9206 119.793 59.2372 119.674 59.5538 119.551C60.0454 119.363 60.2535 120.152 59.7712 120.336Z" fill="#F19A9A"/>
<path d="M80.8903 66.0183C80.8145 66.5763 80.8258 67.2537 81.2957 67.5635C81.6131 67.7729 82.0356 67.7312 82.3975 67.6128C83.4387 67.2727 84.2355 66.3897 84.6987 65.3968C85.162 64.404 85.3325 63.3031 85.4547 62.2146C85.5249 61.5912 85.5788 60.947 85.3903 60.3482C85.2387 59.8641 84.6353 58.9859 84.0138 59.1432C83.4728 59.2796 82.7964 60.7234 82.5359 61.18C81.6851 62.6684 81.1195 64.3187 80.8903 66.0183Z" fill="white"/>
<path d="M80.855 74.127L81.6754 79.5896C81.6754 79.5896 94.9596 80.1429 97.7677 78.6725V75.3292C97.7677 75.3292 85.5085 75.3965 80.855 74.127Z" fill="white"/>
<path d="M68.9751 51.4485C69.3768 51.2477 87.2918 48.3733 87.2918 48.3733C87.2918 48.3733 85.6197 42.5583 81.1414 42.2902C76.6631 42.0231 68.9751 51.4485 68.9751 51.4485Z" fill="#794A4C"/>
<path d="M93.8429 47.371H101.23C101.23 47.371 99.5916 42.6246 95.6476 41.7558C91.7037 40.8861 93.8429 47.371 93.8429 47.371Z" fill="#794A4C"/>
<path d="M50.5613 114.123L54.4851 98.4425L76.2613 106.283L87.1779 140.504L50.5613 114.123Z" fill="#343062"/>
<path d="M88.4389 105.359H96.3155L97.7678 119.7L88.041 130.72L88.4389 105.359Z" fill="#343062"/>
<path d="M31.9348 66.9041C31.9348 68.6672 33.3633 70.0958 35.1261 70.0958C36.8883 70.0958 38.3174 68.6672 38.3174 66.9041C38.3174 65.142 36.8883 63.7124 35.1261 63.7124C33.3633 63.7124 31.9348 65.142 31.9348 66.9041Z" fill="#FDE391"/>
<path d="M31.155 34.2725C31.155 34.8058 31.5871 35.2378 32.1202 35.2378C32.6533 35.2378 33.0858 34.8058 33.0858 34.2725C33.0858 33.74 32.6533 33.3071 32.1202 33.3071C31.5871 33.3071 31.155 33.74 31.155 34.2725Z" fill="white"/>
<path d="M127.368 45.1143C127.368 46.8954 128.812 48.3392 130.592 48.3392C132.373 48.3392 133.817 46.8954 133.817 45.1143C133.817 43.3342 132.373 41.8904 130.592 41.8904C128.812 41.8904 127.368 43.3342 127.368 45.1143Z" fill="#F8A06B"/>
<path d="M41.6548 100.18C41.6548 101.961 43.0986 103.405 44.8794 103.405C46.66 103.405 48.1038 101.961 48.1038 100.18C48.1038 98.3998 46.66 96.956 44.8794 96.956C43.0986 96.956 41.6548 98.3998 41.6548 100.18Z" fill="white"/>
<path d="M120.966 101.94C120.966 103.721 122.41 105.164 124.19 105.164C125.971 105.164 127.415 103.721 127.415 101.94C127.415 100.159 125.971 98.7153 124.19 98.7153C122.41 98.7153 120.966 100.159 120.966 101.94Z" fill="#FDE391"/>
<path d="M121.487 70.1451C121.487 70.6851 121.924 71.1228 122.464 71.1228C123.004 71.1228 123.442 70.6851 123.442 70.1451C123.442 69.6051 123.004 69.1674 122.464 69.1674C121.924 69.1674 121.487 69.6051 121.487 70.1451Z" fill="white"/>
<path d="M16.6702 91.8638C16.6702 92.9552 17.5549 93.84 18.6466 93.84C19.7382 93.84 20.6226 92.9552 20.6226 91.8638C20.6226 90.7724 19.7382 89.8876 18.6466 89.8876C17.5549 89.8876 16.6702 90.7724 16.6702 91.8638Z" fill="#F8A06B"/>
</svg>
