<svg width="32" height="32" viewBox="0 0 32 32" xmlns="http://www.w3.org/2000/svg">
<path d="M3.20483 9.4144L16 15.8112L28.7952 9.4144C28.7479 8.59911 28.3906 7.83278 27.7965 7.27236C27.2025 6.71195 26.4167 6.39985 25.6 6.4H6.40003C5.58337 6.39985 4.79755 6.71195 4.20352 7.27236C3.60949 7.83278 3.2522 8.59911 3.20483 9.4144Z" />
<path d="M28.7999 12.9888L16 19.3888L3.19995 12.9888V22.4C3.19995 23.2487 3.53709 24.0626 4.13721 24.6627C4.73733 25.2629 5.55126 25.6 6.39995 25.6H25.5999C26.4486 25.6 27.2626 25.2629 27.8627 24.6627C28.4628 24.0626 28.7999 23.2487 28.7999 22.4V12.9888Z" />
</svg>
